<svg width="120" height="50" viewBox="0 0 120 50" fill="none" xmlns="http://www.w3.org/2000/svg">
<path d="M3.2 37.495L0.615 1.25L13.705 0.424999L9.745 33.04L23.825 31.335L23.605 37L3.2 37.495ZM37.8986 38.32C35.2952 38.32 33.0769 38.0083 31.2436 37.385C29.4469 36.7983 27.9802 36.0467 26.8436 35.13C26.5502 33.6633 26.3302 32.2517 26.1836 30.895C26.0736 29.5017 26.0186 28.1633 26.0186 26.88C26.0186 24.3133 26.3852 21.93 27.1186 19.73C27.8886 17.53 28.8236 15.5867 29.9236 13.9C31.0602 12.1767 32.2152 10.765 33.3886 9.665C34.5619 8.52833 35.5519 7.75833 36.3586 7.355C38.0086 8.19833 39.6402 9.225 41.2536 10.435C42.8669 11.645 44.3336 13.0567 45.6536 14.67C47.0102 16.2833 48.0919 18.0983 48.8986 20.115C49.7052 22.1317 50.1086 24.3867 50.1086 26.88C50.1086 29.41 49.7602 31.5183 49.0636 33.205C48.3669 34.8917 47.1386 36.1567 45.3786 37C43.6186 37.88 41.1252 38.32 37.8986 38.32ZM34.9286 33.535C36.3219 33.535 37.7152 33.4433 39.1086 33.26C40.5386 33.04 41.7852 32.7467 42.8486 32.38C43.1419 31.2067 43.3619 30.0333 43.5086 28.86C43.6552 27.6867 43.7286 26.5317 43.7286 25.395C43.7286 21.9117 42.9952 18.7217 41.5286 15.825C39.4752 16.8883 37.6602 18.3733 36.0836 20.28C34.5069 22.15 33.2602 24.2217 32.3436 26.495C31.4636 28.7317 31.0236 30.9683 31.0236 33.205C32.1969 33.425 33.4986 33.535 34.9286 33.535ZM75.0283 49.1C73.0116 49.1 71.1049 48.77 69.3083 48.11C67.5116 47.4867 65.6416 46.5333 63.6983 45.25L65.2383 42.5C68.5016 43.93 71.2699 44.645 73.5433 44.645C75.6333 44.645 77.1549 44.0583 78.1083 42.885C79.0983 41.7117 79.5933 40.2083 79.5933 38.375C79.5933 38.265 79.5749 38.0817 79.5383 37.825C79.5383 37.605 79.5016 37.1283 79.4283 36.395C79.3916 35.625 79.2816 34.4517 79.0983 32.875C78.9516 31.2617 78.7316 29.0433 78.4383 26.22H77.9983C76.5316 30.1067 74.5883 32.9117 72.1683 34.635C69.7483 36.3217 67.0716 37.165 64.1383 37.165C63.9183 37.165 63.5516 37.11 63.0383 37C62.5249 36.9267 62.1583 36.835 61.9383 36.725C60.5816 35.405 59.4816 33.4433 58.6383 30.84C57.8316 28.2 57.4283 25.23 57.4283 21.93C57.4283 19.2167 57.7766 16.9617 58.4733 15.165C59.1699 13.3683 60.3433 12.0117 61.9933 11.095C63.6799 10.1783 65.9716 9.72 68.8683 9.72C70.3716 9.72 71.7833 9.90333 73.1033 10.27C74.4599 10.6367 75.7066 11.1867 76.8433 11.92L78.0533 10.325L88.6133 8.73L84.8183 39.475C84.4516 42.3717 83.425 44.7 81.7383 46.46C80.0883 48.22 77.8516 49.1 75.0283 49.1ZM67.8783 32.71C68.5749 32.6 69.4366 32.27 70.4633 31.72C71.4899 31.1333 72.5166 30.2533 73.5433 29.08C74.5699 27.9067 75.4133 26.3667 76.0733 24.46C76.7699 22.5167 77.1183 20.1333 77.1183 17.31C77.1183 16.9067 77.0999 16.5217 77.0633 16.155C77.0633 15.7517 77.0449 15.33 77.0083 14.89C76.2016 14.2667 75.2483 13.79 74.1483 13.46C73.0849 13.13 72.0399 12.965 71.0133 12.965C69.6566 12.965 68.5016 13.2217 67.5483 13.735C67.3649 14.6517 67.1816 15.88 66.9983 17.42C66.8516 18.96 66.7783 20.7933 66.7783 22.92C66.7783 24.0567 66.8333 25.3033 66.9433 26.66C67.0533 27.98 67.1816 29.19 67.3283 30.29C67.5116 31.39 67.6949 32.1967 67.8783 32.71ZM107.078 38.32C104.475 38.32 102.257 38.0083 100.423 37.385C98.6266 36.7983 97.1599 36.0467 96.0232 35.13C95.7299 33.6633 95.5099 32.2517 95.3632 30.895C95.2532 29.5017 95.1982 28.1633 95.1982 26.88C95.1982 24.3133 95.5649 21.93 96.2982 19.73C97.0682 17.53 98.0032 15.5867 99.1032 13.9C100.24 12.1767 101.395 10.765 102.568 9.665C103.742 8.52833 104.732 7.75833 105.538 7.355C107.188 8.19833 108.82 9.225 110.433 10.435C112.047 11.645 113.513 13.0567 114.833 14.67C116.19 16.2833 117.272 18.0983 118.078 20.115C118.885 22.1317 119.288 24.3867 119.288 26.88C119.288 29.41 118.94 31.5183 118.243 33.205C117.547 34.8917 116.318 36.1567 114.558 37C112.798 37.88 110.305 38.32 107.078 38.32ZM104.108 33.535C105.502 33.535 106.895 33.4433 108.288 33.26C109.718 33.04 110.965 32.7467 112.028 32.38C112.322 31.2067 112.542 30.0333 112.688 28.86C112.835 27.6867 112.908 26.5317 112.908 25.395C112.908 21.9117 112.175 18.7217 110.708 15.825C108.655 16.8883 106.84 18.3733 105.263 20.28C103.687 22.15 102.44 24.2217 101.523 26.495C100.643 28.7317 100.203 30.9683 100.203 33.205C101.377 33.425 102.678 33.535 104.108 33.535Z" fill="#1E0259"/>
</svg>
